<?xml version="1.0" standalone="no"?>
<!DOCTYPE svg PUBLIC "-//W3C//DTD SVG 20010904//EN"
 "http://www.w3.org/TR/2001/REC-SVG-20010904/DTD/svg10.dtd">
<svg version="1.0" xmlns="http://www.w3.org/2000/svg"
 width="186.000000pt" height="186.000000pt" viewBox="0 0 186.000000 186.000000"
 preserveAspectRatio="xMidYMid meet">
<metadata>
Created by potrace 1.14, written by Peter Selinger 2001-2017
</metadata>
<g transform="translate(0.000000,186.000000) scale(0.100000,-0.100000)"
fill="#000000" stroke="none">
<path d="M0 930 l0 -930 930 0 930 0 0 930 0 930 -930 0 -930 0 0 -930z m1020
767 c34 -9 45 -17 45 -32 0 -13 -5 -19 -15 -16 -8 2 -61 6 -117 9 -78 3 -103
8 -103 18 0 7 10 16 23 18 12 3 31 7 42 9 36 8 79 6 125 -6z m230 -22 c0 -7
-6 -18 -13 -22 -8 -4 -16 -16 -20 -25 -3 -10 -16 -18 -28 -18 -23 0 -23 0 6
47 20 33 55 45 55 18z m-608 -12 c16 -18 48 -77 48 -88 0 -3 -4 -5 -8 -5 -10
0 -72 87 -72 100 0 15 15 12 32 -7z m834 -118 c6 -15 -11 -45 -25 -45 -3 1
-17 10 -30 21 -21 17 -22 22 -10 30 22 14 59 11 65 -6z m-1041 -46 c27 -28 57
-55 67 -60 24 -13 23 -36 -3 -44 -16 -5 -25 -2 -32 11 -5 11 -34 42 -64 71
-50 47 -61 73 -30 73 7 0 35 -23 62 -51z m653 -11 c129 -41 232 -136 264 -241
7 -23 12 -76 12 -118 -1 -87 -30 -162 -99 -257 -60 -84 -78 -156 -70 -283 6
-87 4 -112 -9 -137 -9 -17 -21 -34 -28 -38 -17 -11 -379 -4 -400 7 -37 20 -43
49 -43 204 0 165 -4 177 -80 284 -61 85 -81 217 -50 335 27 101 97 181 204
232 98 47 180 50 299 12z m-752 -263 c49 -22 55 -27 43 -41 -16 -20 -59 -13
-100 17 -31 22 -39 49 -14 49 8 0 40 -11 71 -25z m1329 5 c-7 -12 -79 -50 -95
-50 -21 0 -9 30 18 44 31 17 86 21 77 6z m-1325 -265 c0 -16 -43 -27 -75 -19
-33 8 -32 32 3 36 40 5 72 -3 72 -17z m150 -193 c0 -9 -85 -92 -94 -92 -3 0
-6 9 -6 19 0 10 17 33 38 50 36 30 62 39 62 23z m970 -14 c23 -25 26 -48 7
-48 -12 0 -57 51 -57 65 0 13 31 3 50 -17z m-370 -476 c0 -5 -6 -16 -13 -26
-12 -16 -26 -18 -110 -15 -93 4 -127 15 -113 38 8 13 236 16 236 3z"/>
<path d="M894 1459 c-60 -11 -139 -53 -184 -100 -54 -56 -85 -149 -83 -250 2
-87 14 -123 72 -208 54 -80 62 -102 70 -196 l6 -80 181 -3 181 -2 5 67 c5 71
29 128 88 216 61 90 80 145 80 231 0 109 -15 151 -75 212 -86 87 -225 132
-341 113z m196 -228 c0 -10 -9 -25 -21 -32 -11 -8 -24 -32 -30 -54 -30 -127
-41 -195 -54 -323 -19 -188 -29 -203 -45 -71 -6 57 -23 148 -37 201 -13 54
-22 102 -18 107 3 6 -4 43 -15 83 -27 97 -26 101 9 93 64 -14 171 -14 184 0
17 20 27 18 27 -4z"/>
<path d="M900 1174 c0 -9 7 -44 16 -78 21 -80 34 -153 43 -246 l8 -75 1 80 c1
44 11 127 22 185 30 155 31 150 -35 150 -44 0 -55 -3 -55 -16z"/>
<path d="M910 984 c0 -10 5 -26 10 -34 8 -11 9 -7 4 15 -8 37 -14 45 -14 19z"/>
<path d="M815 561 c-64 -6 -69 -12 -52 -64 12 -37 36 -42 210 -42 137 0 150 2
163 20 8 11 14 34 12 50 -3 28 -6 30 -58 37 -65 7 -191 7 -275 -1z"/>
</g>
</svg>
